<?xml version="1.0" encoding="UTF-8" standalone="no"?>
<!-- Generator: Adobe Illustrator 16.0.0, SVG Export Plug-In . SVG Version: 6.00 Build 0)  -->

<svg
   xmlns:dc="http://purl.org/dc/elements/1.1/"
   xmlns:cc="http://creativecommons.org/ns#"
   xmlns:rdf="http://www.w3.org/1999/02/22-rdf-syntax-ns#"
   xmlns:svg="http://www.w3.org/2000/svg"
   xmlns="http://www.w3.org/2000/svg"
   xmlns:xlink="http://www.w3.org/1999/xlink"
   xmlns:sodipodi="http://sodipodi.sourceforge.net/DTD/sodipodi-0.dtd"
   xmlns:inkscape="http://www.inkscape.org/namespaces/inkscape"
   version="1.1"
   id="Layer_1"
   x="0px"
   y="0px"
   width="330"
   height="100"
   viewBox="0 0 330 100"
   xml:space="preserve"
   sodipodi:docname="logo.svg"
   inkscape:version="0.92.2 (5c3e80d, 2017-08-06)"><metadata
     id="metadata75"><rdf:RDF><cc:Work
         rdf:about=""><dc:format>image/svg+xml</dc:format><dc:type
           rdf:resource="http://purl.org/dc/dcmitype/StillImage" /><dc:title></dc:title></cc:Work></rdf:RDF></metadata><defs
     id="defs73" /><sodipodi:namedview
     pagecolor="#ffffff"
     bordercolor="#666666"
     borderopacity="1"
     objecttolerance="10"
     gridtolerance="10"
     guidetolerance="10"
     inkscape:pageopacity="0"
     inkscape:pageshadow="2"
     inkscape:window-width="1366"
     inkscape:window-height="706"
     id="namedview71"
     showgrid="false"
     showguides="true"
     inkscape:guide-bbox="true"
     inkscape:measure-start="0,0"
     inkscape:measure-end="0,0"
     inkscape:zoom="0.52500809"
     inkscape:cx="328.19441"
     inkscape:cy="273.9174"
     inkscape:window-x="-8"
     inkscape:window-y="-8"
     inkscape:window-maximized="1"
     inkscape:current-layer="Layer_1"><sodipodi:guide
       position="462.86112,350.49022"
       orientation="1,0"
       id="guide886"
       inkscape:locked="false" /></sodipodi:namedview><polygon
     points="222.65,392.98 235.27,412.08 247.76,392.98 254.7,392.98 238.97,416.07 256.22,441.78 248.88,441.78 235.01,420.14 221.07,441.78 214.2,441.78 231.24,416.07 215.52,392.98 "
     id="polygon2"
     style="fill:#ffa000"
     transform="translate(-138,-371.89001)" /><path
     d="m 186.17,64.16999 h -0.13 c -0.97,1.84 -2.5,3.39 -4.59,4.65 -2.09,1.26 -4.53,1.9 -7.3,1.9 -2.16,0 -4.18,-0.42 -6.08,-1.27 -1.89,-0.85 -3.53,-2.03 -4.92,-3.55 -1.39,-1.52 -2.48,-3.31 -3.27,-5.38 -0.79,-2.07 -1.19,-4.32 -1.19,-6.75 0,-2.43 0.4,-4.69 1.19,-6.75 0.79,-2.07 1.89,-3.86 3.3,-5.38 1.41,-1.52001 3.12,-2.7 5.12,-3.55 2,-0.85 4.22,-1.27 6.64,-1.27 2.25,0 4.31,0.48 6.18,1.45 1.87,0.97 3.51,2.31999 4.92,4.06999 h 0.13 V 17.79999 h 5.15 v 52.11 h -5.15 z m 0,-10.41 c 0,-1.7 -0.25,-3.27 -0.76,-4.72 -0.51,-1.45 -1.24,-2.71 -2.21,-3.79 -0.97,-1.08 -2.12,-1.93 -3.47,-2.55 -1.34,-0.62 -2.85,-0.93 -4.53,-0.93 -1.67,0 -3.18,0.31 -4.53,0.93 -1.34,0.62 -2.5,1.47 -3.47,2.55 -0.97,1.08 -1.71,2.34 -2.21,3.79 -0.51,1.45 -0.76,3.02 -0.76,4.72 0,1.7 0.25,3.27 0.76,4.72 0.51,1.45 1.24,2.71 2.21,3.79 0.97,1.08 2.13,1.93 3.47,2.55 1.34,0.62 2.85,0.93 4.53,0.93 1.67,0 3.18,-0.31 4.53,-0.93 1.34,-0.62 2.5,-1.47 3.47,-2.55 0.97,-1.08 1.71,-2.34 2.21,-3.79 0.51,-1.44 0.76,-3.02 0.76,-4.72 z"
     id="path4"
     inkscape:connector-curvature="0"
     style="fill:#ffa000" /><path
     d="m 198.73,37.62999 h 5.15 v 32.26 h -5.15 z m -1.19,-12.61 c 0,-1.06 0.36,-1.98 1.09,-2.76 0.73,-0.78 1.62,-1.17 2.68,-1.17 1.06,0 1.95,0.39 2.68,1.17 0.73,0.78 1.09,1.7 1.09,2.76 0,1.15 -0.35,2.09 -1.06,2.83 -0.71,0.73 -1.61,1.1 -2.71,1.1 -1.1,0 -2,-0.37 -2.71,-1.1 -0.71,-0.74 -1.06,-1.68 -1.06,-2.83 z"
     id="path6"
     inkscape:connector-curvature="0"
     style="fill:#ffa000" /><path
     d="m 230.38,42.18999 h -9.12 v 16.13 c 0,1.06 0.02,2.03 0.07,2.93 0.04,0.9 0.22,1.68 0.53,2.34 0.31,0.67 0.77,1.19 1.39,1.58 0.62,0.39 1.5,0.59 2.64,0.59 0.75,0 1.52,-0.09 2.31,-0.28 0.79,-0.18 1.54,-0.46 2.25,-0.83 l 0.2,4.89 c -0.88,0.41 -1.86,0.71 -2.94,0.9 -1.08,0.18 -2.1,0.28 -3.07,0.28 -1.85,0 -3.33,-0.25 -4.43,-0.76 -1.1,-0.51 -1.96,-1.22 -2.58,-2.14 -0.62,-0.92 -1.02,-2.06 -1.22,-3.41 -0.2,-1.36 -0.3,-2.86 -0.3,-4.51001 V 42.17999 h -6.74 v -4.55 h 6.74 v -9.17 h 5.15 v 9.17 h 9.12 z"
     id="path8"
     inkscape:connector-curvature="0"
     style="fill:#ffa000" /><path
     d="m 236.98,21.08999 h 13.88 c 2.16,0 4.22,0.21999 6.18,0.65999 1.96,0.44 3.7,1.17001 5.22,2.21001 1.52,1.03 2.73,2.40999 3.63,4.14 0.9,1.72 1.35,3.85 1.35,6.38 0,2.67 -0.48,4.87 -1.45,6.62 -0.97,1.75 -2.21,3.12 -3.73,4.14 -1.52,1.01 -3.18,1.72 -4.99,2.14 -1.81,0.41 -3.52,0.62 -5.15,0.62 h -9.38 v 21.92 h -5.55 v -48.83 z m 5.55,21.51 h 9.38 c 2.78,0 5.03,-0.66 6.77,-1.96 1.74,-1.31 2.61,-3.34 2.61,-6.1 0,-2.76 -0.87,-4.79 -2.61,-6.1 -1.74,-1.31 -4,-1.97 -6.77,-1.97 h -9.38 z"
     id="path10"
     inkscape:connector-curvature="0" /><path
     d="m 272.6,45.28999 c 0,-1.47 -0.04,-2.85 -0.13,-4.14 -0.09,-1.29 -0.13,-2.46 -0.13,-3.52 h 4.89 c 0,0.87 0.02,1.75 0.07,2.62 0.04,0.87 0.07,1.77 0.07,2.69 h 0.13 c 0.35,-0.78 0.85,-1.54 1.49,-2.27 0.64,-0.73 1.4,-1.39 2.28,-1.96 0.88,-0.58 1.87,-1.03 2.97,-1.38 1.1,-0.35 2.29,-0.52 3.57,-0.52 0.35,0 0.71,0.02 1.06,0.07 0.35,0.05 0.71,0.14 1.06,0.28 l -0.33,5.45 c -0.88,-0.28 -1.81,-0.41 -2.77,-0.41 -3.17,0 -5.47,1.07 -6.91,3.21 -1.43,2.14 -2.15,5.07 -2.15,8.79 v 15.72 h -5.15 v -24.63 z"
     id="path12"
     inkscape:connector-curvature="0" /><path
     d="m 291.56,53.75999 c 0,-2.53 0.42,-4.82 1.25,-6.89001 0.84,-2.06999 1.98,-3.84999 3.44,-5.33999 1.45,-1.49 3.19,-2.65 5.22,-3.48 2.03,-0.83 4.23,-1.24001 6.61,-1.24001 2.38,0 4.58,0.41001 6.61,1.24001 2.03,0.83 3.77,1.99 5.22,3.48 1.45,1.49 2.6,3.27 3.44,5.33999 0.84,2.07001 1.25,4.37001 1.25,6.89001 0,2.52 -0.42,4.82999 -1.25,6.89 -0.84,2.07 -1.98,3.85 -3.44,5.34 -1.45,1.49 -3.19,2.65 -5.22,3.48 -2.03,0.83 -4.23,1.24 -6.61,1.24 -2.38,0 -4.58,-0.41 -6.61,-1.24 -2.03,-0.83 -3.77,-1.99 -5.22,-3.48 -1.45,-1.49 -2.6,-3.27 -3.44,-5.34 -0.83,-2.06001 -1.25,-4.36 -1.25,-6.89 z m 5.55,0 c 0,1.7 0.25,3.27 0.76,4.72 0.51,1.45 1.24,2.71 2.21,3.79 0.97,1.08 2.13,1.93 3.47,2.55 1.34,0.62 2.85,0.93 4.53,0.93 1.67,0 3.18,-0.31 4.53,-0.93 1.34,-0.62 2.5,-1.47 3.47,-2.55 0.97,-1.08 1.71,-2.34 2.21,-3.79 0.51,-1.45 0.76,-3.02 0.76,-4.72 0,-1.7 -0.25,-3.27 -0.76,-4.72 -0.51,-1.45 -1.24,-2.71 -2.21,-3.79 -0.97,-1.08 -2.12,-1.93 -3.47,-2.55 -1.34,-0.62 -2.85,-0.93 -4.53,-0.93 -1.67,0 -3.18,0.31 -4.53,0.93 -1.34,0.62 -2.5,1.47 -3.47,2.55 -0.97,1.08 -1.71,2.34 -2.21,3.79 -0.51,1.45 -0.76,3.03 -0.76,4.72 z"
     id="path14"
     inkscape:connector-curvature="0" /><polygon
     points="139.56,418.27 143.46,418.27 143.46,410.56 139.56,410.56 "
     id="polygon16"
     style="clip-rule:evenodd;fill:#ffa000;fill-rule:evenodd"
     transform="translate(-138,-371.89001)" /><polygon
     points="202.72,418.27 206.62,418.27 206.62,410.56 202.72,410.56 "
     id="polygon18"
     style="clip-rule:evenodd;fill:#ffa000;fill-rule:evenodd"
     transform="translate(-138,-371.89001)" /><path
     d="m 35.14,17.38999 v 5.2 h 20.62 c 3.35,0 6.04,2.69 6.04,6.04 v 34.66 c 0,3.53 -2.79,6.32 -6.23,6.32 H 27.85 c -0.09,0 -0.19,0.09 -0.19,0.09 l -18.68,14.59 c -0.19,0.09 -0.37,0 -0.37,-0.19 v -55.19 c 0,-3.53 2.79,-6.32 6.23,-6.32 h 18.81 v -5.2 z m 16.12,9.95 H 19.05 c -3.17,0 -5.74,2.57 -5.74,5.74 v 26.21 c 0,3.17 2.57,5.74 5.74,5.74 h 32.21 c 3.17,0 5.74,-2.57 5.74,-5.74 v -26.21 c 0,-3.16 -2.57,-5.73 -5.74,-5.74 z"
     id="path20"
     inkscape:connector-curvature="0"
     style="clip-rule:evenodd;fill-rule:evenodd" /><polygon
     points="477.72,488.33 477.72,354.89 117,354.89 117,488.33 "
     id="polygon22"
     style="clip-rule:evenodd;fill:none;fill-rule:evenodd"
     transform="translate(-138,-373.89001)" /><g
     id="g38"
     transform="translate(-138,-371.89001)"><defs
       id="defs25"><path
         id="SVGID_1_"
         d="m 173.14,389.28 v 5.2 h 20.62 c 3.35,0 6.04,2.69 6.04,6.04 v 34.66 c 0,3.53 -2.79,6.32 -6.23,6.32 h -27.72 c -0.09,0 -0.19,0.09 -0.19,0.09 l -18.68,14.59 c -0.19,0.09 -0.37,0 -0.37,-0.19 V 400.8 c 0,-3.53 2.79,-6.32 6.23,-6.32 h 18.81 v -5.2 z m 16.12,9.95 h -32.21 c -3.17,0 -5.74,2.57 -5.74,5.74 v 26.21 c 0,3.17 2.57,5.74 5.74,5.74 h 32.21 c 3.17,0 5.74,-2.57 5.74,-5.74 v -26.21 c 0,-3.16 -2.57,-5.73 -5.74,-5.74 z"
         inkscape:connector-curvature="0" /></defs><defs
       id="defs28"><polygon
         id="SVGID_2_"
         points="117,488.33 477.72,488.33 477.72,354.89 117,354.89 " /></defs><clipPath
       id="SVGID_3_"><use
         xlink:href="#SVGID_1_"
         overflow="visible"
         id="use30"
         style="overflow:visible"
         x="0"
         y="0"
         width="100%"
         height="100%" /></clipPath><clipPath
       id="SVGID_4_"
       clip-path="url(#SVGID_3_)"><use
         xlink:href="#SVGID_2_"
         overflow="visible"
         id="use33"
         style="overflow:visible"
         x="0"
         y="0"
         width="100%"
         height="100%" /></clipPath><path
       clip-path="url(#SVGID_4_)"
       d="m 195,404.97 c 0,-3.17 -2.57,-5.74 -5.74,-5.74 h -32.21 c -3.17,0 -5.74,2.57 -5.74,5.74 v 26.21 c 0,3.17 2.57,5.74 5.74,5.74 h 32.21 c 3.17,0 5.74,-2.57 5.74,-5.74 z"
       id="path36"
       inkscape:connector-curvature="0"
       style="clip-rule:evenodd;fill:#ffffff;fill-rule:evenodd" /></g><g
     id="g64"
     transform="translate(-138,-371.89001)"><defs
       id="defs41"><polygon
         id="SVGID_5_"
         points="117,488.33 477.72,488.33 477.72,354.89 117,354.89 " /></defs><clipPath
       id="SVGID_6_"><use
         xlink:href="#SVGID_5_"
         overflow="visible"
         id="use43"
         style="overflow:visible"
         x="0"
         y="0"
         width="100%"
         height="100%" /></clipPath><polygon
       clip-path="url(#SVGID_6_)"
       points="174.28,384.6 170.56,384.6 170.56,388.32 173.16,388.32 174.28,388.32 "
       id="polygon46"
       style="fill:#ffa000" /><polygon
       clip-path="url(#SVGID_6_)"
       points="175.26,411.47 188.78,411.47 188.78,410.29 175.26,410.29 "
       id="polygon48"
       style="clip-rule:evenodd;fill-rule:evenodd" /><polygon
       clip-path="url(#SVGID_6_)"
       points="175.26,416.27 188.78,416.27 188.78,415.08 175.26,415.08 "
       id="polygon50"
       style="clip-rule:evenodd;fill-rule:evenodd" /><polygon
       clip-path="url(#SVGID_6_)"
       points="175.26,421.07 188.78,421.07 188.78,419.89 175.26,419.89 "
       id="polygon52"
       style="clip-rule:evenodd;fill-rule:evenodd" /><polygon
       clip-path="url(#SVGID_6_)"
       points="175.26,425.87 188.78,425.87 188.78,424.69 175.26,424.69 "
       id="polygon54"
       style="clip-rule:evenodd;fill-rule:evenodd" /><polygon
       clip-path="url(#SVGID_6_)"
       points="157.53,411.47 171.05,411.47 171.05,410.29 157.53,410.29 "
       id="polygon56"
       style="clip-rule:evenodd;fill-rule:evenodd" /><polygon
       clip-path="url(#SVGID_6_)"
       points="157.53,416.27 171.05,416.27 171.05,415.08 157.53,415.08 "
       id="polygon58"
       style="clip-rule:evenodd;fill-rule:evenodd" /><polygon
       clip-path="url(#SVGID_6_)"
       points="157.53,421.07 171.05,421.07 171.05,419.89 157.53,419.89 "
       id="polygon60"
       style="clip-rule:evenodd;fill-rule:evenodd" /><polygon
       clip-path="url(#SVGID_6_)"
       points="157.53,425.87 171.05,425.87 171.05,424.69 157.53,424.69 "
       id="polygon62"
       style="clip-rule:evenodd;fill-rule:evenodd" /></g><g
     id="g68"
     transform="translate(-138,-371.89001)"><path
       d="m 261.92,392.93 h 27.94 v 5.38 h -22.67 v 15.32 h 21.16 v 5.38 h -21.16 v 17.39 h 23.8 v 5.38 h -29.07 z"
       id="path66"
       inkscape:connector-curvature="0"
       style="fill:#ffa000" /></g><text
     xml:space="preserve"
     style="font-style:normal;font-weight:normal;font-size:80px;line-height:1.25;font-family:'Proxima Nova', sans-serif;letter-spacing:0px;word-spacing:0px;fill:#000000;fill-opacity:1;stroke:none"
     x="154.52109"
     y="94.105774"
     id="text884"><tspan
       id="tspan882"
       x="154.52109"
       y="94.105774"
       style="font-size:21.33333397px">Publishing Suite</tspan></text>
</svg>