<?xml version="1.0" encoding="UTF-8" standalone="no"?>
<!-- Generator: Adobe Illustrator 16.0.0, SVG Export Plug-In . SVG Version: 6.00 Build 0)  -->

<svg
   xmlns:dc="http://purl.org/dc/elements/1.1/"
   xmlns:cc="http://creativecommons.org/ns#"
   xmlns:rdf="http://www.w3.org/1999/02/22-rdf-syntax-ns#"
   xmlns:svg="http://www.w3.org/2000/svg"
   xmlns="http://www.w3.org/2000/svg"
   xmlns:xlink="http://www.w3.org/1999/xlink"
   xmlns:sodipodi="http://sodipodi.sourceforge.net/DTD/sodipodi-0.dtd"
   xmlns:inkscape="http://www.inkscape.org/namespaces/inkscape"
   version="1.1"
   id="Layer_1"
   x="0px"
   y="0px"
   width="75"
   height="100"
   viewBox="0 0 75 100"
   xml:space="preserve"
   sodipodi:docname="logo.svg"
   inkscape:version="0.92.2 (5c3e80d, 2017-08-06)"><metadata
     id="metadata75"><rdf:RDF><cc:Work
         rdf:about=""><dc:format>image/svg+xml</dc:format><dc:type
           rdf:resource="http://purl.org/dc/dcmitype/StillImage" /><dc:title></dc:title></cc:Work></rdf:RDF></metadata><defs
     id="defs73" /><sodipodi:namedview
     pagecolor="#ffffff"
     bordercolor="#666666"
     borderopacity="1"
     objecttolerance="10"
     gridtolerance="10"
     guidetolerance="10"
     inkscape:pageopacity="0"
     inkscape:pageshadow="2"
     inkscape:window-width="1366"
     inkscape:window-height="706"
     id="namedview71"
     showgrid="false"
     showguides="true"
     inkscape:guide-bbox="true"
     inkscape:measure-start="0,0"
     inkscape:measure-end="0,0"
     inkscape:zoom="0.52500809"
     inkscape:cx="328.19441"
     inkscape:cy="273.9174"
     inkscape:window-x="-8"
     inkscape:window-y="-8"
     inkscape:window-maximized="1"
     inkscape:current-layer="Layer_1"><sodipodi:guide
       position="462.86112,350.49022"
       orientation="1,0"
       id="guide886"
       inkscape:locked="false" /></sodipodi:namedview><polygon
     points="139.56,418.27 143.46,418.27 143.46,410.56 139.56,410.56 "
     id="polygon16"
     style="clip-rule:evenodd;fill:#ffa000;fill-rule:evenodd"
     transform="translate(-138,-371.89001)" /><polygon
     points="202.72,418.27 206.62,418.27 206.62,410.56 202.72,410.56 "
     id="polygon18"
     style="clip-rule:evenodd;fill:#ffa000;fill-rule:evenodd"
     transform="translate(-138,-371.89001)" /><path
     d="m 35.14,17.38999 v 5.2 h 20.62 c 3.35,0 6.04,2.69 6.04,6.04 v 34.66 c 0,3.53 -2.79,6.32 -6.23,6.32 H 27.85 c -0.09,0 -0.19,0.09 -0.19,0.09 l -18.68,14.59 c -0.19,0.09 -0.37,0 -0.37,-0.19 v -55.19 c 0,-3.53 2.79,-6.32 6.23,-6.32 h 18.81 v -5.2 z m 16.12,9.95 H 19.05 c -3.17,0 -5.74,2.57 -5.74,5.74 v 26.21 c 0,3.17 2.57,5.74 5.74,5.74 h 32.21 c 3.17,0 5.74,-2.57 5.74,-5.74 v -26.21 c 0,-3.16 -2.57,-5.73 -5.74,-5.74 z"
     id="path20"
     inkscape:connector-curvature="0"
     style="clip-rule:evenodd;fill-rule:evenodd;fill:#ffffff" /><polygon
     points="477.72,488.33 477.72,354.89 117,354.89 117,488.33 "
     id="polygon22"
     style="clip-rule:evenodd;fill:none;fill-rule:evenodd"
     transform="translate(-138,-373.89001)" /><g
     id="g38"
     transform="translate(-138,-371.89001)"><defs
       id="defs25"><path
         id="SVGID_1_"
         d="m 173.14,389.28 v 5.2 h 20.62 c 3.35,0 6.04,2.69 6.04,6.04 v 34.66 c 0,3.53 -2.79,6.32 -6.23,6.32 h -27.72 c -0.09,0 -0.19,0.09 -0.19,0.09 l -18.68,14.59 c -0.19,0.09 -0.37,0 -0.37,-0.19 V 400.8 c 0,-3.53 2.79,-6.32 6.23,-6.32 h 18.81 v -5.2 z m 16.12,9.95 h -32.21 c -3.17,0 -5.74,2.57 -5.74,5.74 v 26.21 c 0,3.17 2.57,5.74 5.74,5.74 h 32.21 c 3.17,0 5.74,-2.57 5.74,-5.74 v -26.21 c 0,-3.16 -2.57,-5.73 -5.74,-5.74 z"
         inkscape:connector-curvature="0" /></defs><defs
       id="defs28"><polygon
         id="SVGID_2_"
         points="117,488.33 477.72,488.33 477.72,354.89 117,354.89 " /></defs><clipPath
       id="SVGID_3_"><use
         xlink:href="#SVGID_1_"
         overflow="visible"
         id="use30"
         style="overflow:visible"
         x="0"
         y="0"
         width="100%"
         height="100%" /></clipPath><clipPath
       id="SVGID_4_"
       clip-path="url(#SVGID_3_)"><use
         xlink:href="#SVGID_2_"
         overflow="visible"
         id="use33"
         style="overflow:visible"
         x="0"
         y="0"
         width="100%"
         height="100%" /></clipPath><path
       clip-path="url(#SVGID_4_)"
       d="m 195,404.97 c 0,-3.17 -2.57,-5.74 -5.74,-5.74 h -32.21 c -3.17,0 -5.74,2.57 -5.74,5.74 v 26.21 c 0,3.17 2.57,5.74 5.74,5.74 h 32.21 c 3.17,0 5.74,-2.57 5.74,-5.74 z"
       id="path36"
       inkscape:connector-curvature="0"
       style="clip-rule:evenodd;fill:#ffffff;fill-rule:evenodd" /></g><g
     id="g64"
     transform="translate(-138,-371.89001)"><defs
       id="defs41"><polygon
         id="SVGID_5_"
         points="117,488.33 477.72,488.33 477.72,354.89 117,354.89 " /></defs><clipPath
       id="SVGID_6_"><use
         xlink:href="#SVGID_5_"
         overflow="visible"
         id="use43"
         style="overflow:visible"
         x="0"
         y="0"
         width="100%"
         height="100%" /></clipPath><polygon
       clip-path="url(#SVGID_6_)"
       points="174.28,384.6 170.56,384.6 170.56,388.32 173.16,388.32 174.28,388.32 "
       id="polygon46"
       style="fill:#ffa000" /><polygon
       clip-path="url(#SVGID_6_)"
       points="175.26,411.47 188.78,411.47 188.78,410.29 175.26,410.29 "
       id="polygon48"
       style="clip-rule:evenodd;fill-rule:evenodd;fill:#ffffff" /><polygon
       clip-path="url(#SVGID_6_)"
       points="175.26,416.27 188.78,416.27 188.78,415.08 175.26,415.08 "
       id="polygon50"
       style="clip-rule:evenodd;fill-rule:evenodd;fill:#ffffff" /><polygon
       clip-path="url(#SVGID_6_)"
       points="175.26,421.07 188.78,421.07 188.78,419.89 175.26,419.89 "
       id="polygon52"
       style="clip-rule:evenodd;fill-rule:evenodd;fill:#ffffff" /><polygon
       clip-path="url(#SVGID_6_)"
       points="175.26,425.87 188.78,425.87 188.78,424.69 175.26,424.69 "
       id="polygon54"
       style="clip-rule:evenodd;fill-rule:evenodd;fill:#ffffff" /><polygon
       clip-path="url(#SVGID_6_)"
       points="157.53,411.47 171.05,411.47 171.05,410.29 157.53,410.29 "
       id="polygon56"
       style="clip-rule:evenodd;fill-rule:evenodd;fill:#ffffff" /><polygon
       clip-path="url(#SVGID_6_)"
       points="157.53,416.27 171.05,416.27 171.05,415.08 157.53,415.08 "
       id="polygon58"
       style="clip-rule:evenodd;fill-rule:evenodd;fill:#ffffff" /><polygon
       clip-path="url(#SVGID_6_)"
       points="157.53,421.07 171.05,421.07 171.05,419.89 157.53,419.89 "
       id="polygon60"
       style="clip-rule:evenodd;fill-rule:evenodd;fill:#ffffff" /><polygon
       clip-path="url(#SVGID_6_)"
       points="157.53,425.87 171.05,425.87 171.05,424.69 157.53,424.69 "
       id="polygon62"
       style="clip-rule:evenodd;fill-rule:evenodd;fill:#ffffff" /></g><g
     id="g68"
     transform="translate(-138,-371.89001)"></g>
</svg>